<?xml version="1.0" encoding="utf-8"?>
<!-- Generator: Adobe Illustrator 28.0.0, SVG Export Plug-In . SVG Version: 6.00 Build 0)  -->
<svg version="1.1" id="Слой_1" xmlns="http://www.w3.org/2000/svg" xmlns:xlink="http://www.w3.org/1999/xlink" x="0px" y="0px"
	 viewBox="0 0 333 333" style="enable-background:new 0 0 333 333;" xml:space="preserve">
<style type="text/css">
	.st0{fill:#FFFFFF;}
</style>
<g>
	<g>
		<path class="st0" d="M317,315c-100.65,0-201.29,0-302,0c0-102.29,0-204.58,0-306.99c100.63,0,201.31,0,302-0.01
			C317,110.33,317,212.66,317,315z M171.02,251.39c19.61,0,39.18,0.34,58.73-0.11c14.05-0.32,22.89-8.69,28.52-20.95
			c5.03-10.95,6.41-22.53,5.37-34.37c-1.28-14.56-6.85-26.71-20.58-33.81c-0.48-0.25-0.83-0.74-0.88-0.79
			c3.61-5.06,7.72-9.56,10.37-14.8c7.94-15.66,7.28-31.76,0-47.38C247.06,87.37,237.8,80.4,224,80.94
			c-4.97,0.19-9.99,0.44-14.91-0.08c-10.04-1.05-18.83,1.54-27.2,7.08c-3.11,2.06-4.7,3.99-4.9,7.65
			c-0.87,16.37-1.91,32.73-2.9,49.09c-1.03,17.11-2.48,34.21-2.96,51.34C170.62,214.49,171.02,232.98,171.02,251.39z M86.49,117.43
			c-0.34,5.41-0.73,10.49-0.97,15.57c-0.78,16.38-1.55,32.75-2.26,49.13c-0.8,18.47-1.57,36.94-2.24,55.42
			c-0.17,4.69,2.55,8.22,7.17,8.86c4.59,0.63,9.32,0.94,13.94,0.6c6.34-0.47,8.64-3.41,8.64-9.8c0-19.42-0.02-38.83-0.03-58.25
			c0-5.19,0-10.39,0-15.5c13.62,0,26.53,0,39.88,0c0,1.82,0,3.44,0,5.06c0,19.57-0.01,39.13,0.03,58.7c0,1.47-0.2,3.33,0.57,4.35
			c4.8,6.41,9.86,12.63,15.4,19.65c0-47.66,0-94.22,0-140.84c-5.38,0-10.52,0-16.1,0c0,13.86,0,27.34,0,41.08
			c-13.14,0-25.83,0-39.05,0c0-11.5,0-22.68,0-34.01C102.99,117.43,95.04,117.43,86.49,117.43z M28.49,116.69
			c3.23-2.52,5.38-4.33,7.67-5.97c8.55-6.14,15.93-14.45,26.92-16.26c5.93-0.98,12.08-0.96,18.11-0.76c2.92,0.1,4.63,2.39,4.4,5.73
			c-0.2,2.78-0.04,5.59-0.04,8.4c8.74,0,16.82,0,24.88,0c0.66-10.63,5.43-14.12,12.48-15.77c5.4-1.27,11.61,0.46,13.03,3.52
			c2.4,5.17,5.38,6.47,12.07,5.3c3.05-0.54,6.07-4.73,6.15-8.88c0.1-5.42,0.05-10.83,0.02-16.25c-0.02-3.69-2.71-6.8-6.4-7.25
			c-4.01-0.48-7.47,0-10.41,3.59c-4.26,5.2-10.13,5.34-14.67,0.49c-3.68-3.94-7.74-5.45-13.13-5.18c-8.11,0.41-16.27,0.02-24.4,0.16
			c-2.65,0.05-5.39,0.38-7.93,1.12c-15.77,4.59-27.82,14.46-37.42,27.39C35.45,101.96,30.41,107.62,28.49,116.69z"/>
		<path d="M171.02,251.39c0-18.4-0.4-36.9,0.12-55.36c0.48-17.13,1.93-34.23,2.96-51.34c0.98-16.36,2.03-32.72,2.9-49.09
			c0.19-3.66,1.79-5.59,4.9-7.65c8.37-5.54,17.15-8.13,27.2-7.08c4.92,0.51,9.94,0.27,14.91,0.08c13.8-0.54,23.06,6.43,28.56,18.24
			c7.27,15.62,7.94,31.72,0,47.38c-2.65,5.23-6.76,9.73-10.37,14.8c0.05,0.05,0.4,0.54,0.88,0.79c13.73,7.11,19.3,19.26,20.58,33.81
			c1.04,11.84-0.33,23.42-5.37,34.37c-5.63,12.26-14.47,20.63-28.52,20.95C210.2,251.72,190.63,251.39,171.02,251.39z
			 M186.42,223.55c13.02,0,25.17,0.25,37.31-0.11c6.01-0.18,10.93-3.59,12.69-9.3c1.68-5.48,2.8-11.48,2.49-17.16
			c-0.69-12.43-6.97-18.5-19.21-19.4c-8.38-0.61-16.82-0.54-25.23-0.76c-1.87-0.05-3.75-0.01-5.77-0.01
			C187.92,192.87,187.17,208.12,186.42,223.55z M190.09,147.96c10.19,0,19.63,0.15,29.07-0.05c6.48-0.14,11.1-3.56,13.5-9.53
			c2.93-7.3,3.16-14.9-0.68-21.77c-1.72-3.08-5.39-6.66-8.56-7.07c-10.19-1.3-20.57-1.24-31.27-1.72
			C191.43,121.81,190.76,134.82,190.09,147.96z"/>
		<path d="M86.49,117.43c8.55,0,16.5,0,24.98,0c0,11.33,0,22.52,0,34.01c13.22,0,25.91,0,39.05,0c0-13.73,0-27.21,0-41.08
			c5.58,0,10.73,0,16.1,0c0,46.62,0,93.18,0,140.84c-5.55-7.02-10.6-13.24-15.4-19.65c-0.77-1.02-0.57-2.88-0.57-4.35
			c-0.03-19.57-0.03-39.13-0.03-58.7c0-1.62,0-3.24,0-5.06c-13.35,0-26.25,0-39.88,0c0,5.12,0,10.31,0,15.5
			c0.01,19.42,0.03,38.83,0.03,58.25c0,6.39-2.3,9.33-8.64,9.8c-4.61,0.34-9.34,0.04-13.94-0.6c-4.62-0.64-7.34-4.16-7.17-8.86
			c0.67-18.48,1.44-36.95,2.24-55.42c0.71-16.38,1.47-32.76,2.26-49.13C85.76,127.92,86.15,122.84,86.49,117.43z"/>
		<path d="M28.49,116.69c1.91-9.06,6.95-14.72,11.33-20.62c9.6-12.93,21.65-22.8,37.42-27.39c2.54-0.74,5.27-1.07,7.93-1.12
			c8.13-0.14,16.28,0.25,24.4-0.16c5.39-0.27,9.45,1.24,13.13,5.18c4.53,4.85,10.41,4.71,14.67-0.49c2.94-3.59,6.4-4.08,10.41-3.59
			c3.69,0.45,6.38,3.56,6.4,7.25c0.03,5.42,0.08,10.84-0.02,16.25c-0.08,4.14-3.1,8.34-6.15,8.88c-6.69,1.17-9.67-0.13-12.07-5.3
			c-1.42-3.06-7.63-4.79-13.03-3.52c-7.05,1.65-11.82,5.14-12.48,15.77c-8.06,0-16.14,0-24.88,0c0-2.81-0.16-5.62,0.04-8.4
			c0.24-3.34-1.48-5.63-4.4-5.73c-6.03-0.2-12.19-0.21-18.11,0.76c-10.99,1.81-18.37,10.11-26.92,16.26
			C33.88,112.36,31.72,114.17,28.49,116.69z"/>
		<path class="st0" d="M186.42,223.55c0.75-15.43,1.5-30.68,2.28-46.73c2.02,0,3.9-0.04,5.77,0.01c8.41,0.21,16.84,0.14,25.23,0.76
			c12.24,0.9,18.52,6.96,19.21,19.4c0.32,5.68-0.8,11.68-2.49,17.16c-1.76,5.72-6.68,9.13-12.69,9.3
			C211.6,223.8,199.44,223.55,186.42,223.55z"/>
		<path class="st0" d="M190.09,147.96c0.67-13.14,1.34-26.15,2.06-40.13c10.7,0.48,21.07,0.41,31.27,1.72
			c3.16,0.41,6.83,3.98,8.56,7.07c3.84,6.87,3.6,14.47,0.68,21.77c-2.4,5.97-7.01,9.39-13.5,9.53
			C209.72,148.11,200.28,147.96,190.09,147.96z"/>
	</g>
</g>
</svg>
