<?xml version="1.0" encoding="utf-8"?>
<!-- Generator: Adobe Illustrator 28.0.0, SVG Export Plug-In . SVG Version: 6.00 Build 0)  -->
<svg version="1.1" xmlns="http://www.w3.org/2000/svg" xmlns:xlink="http://www.w3.org/1999/xlink" x="0px" y="0px"
	 viewBox="0 0 333 333" style="enable-background:new 0 0 333 333;" xml:space="preserve">
<style type="text/css">
	.st0{display:none;}
	.st1{fill:#FFFFFF;}
</style>
<g id="Слой_1" class="st0">
</g>
<g id="Слой_2">
	<g>
		<g>
			<path class="st1" d="M297.56,294.56c-94.83,0-189.67,0-284.56,0c0-94.81,0-189.63,0-284.56c94.82,0,189.69,0,284.56-0.01
				C297.56,104.85,297.56,199.7,297.56,294.56z M160.1,236.35c18.08,0,36.24,0.27,54.39-0.09c14.15-0.28,22.91-8.56,28.25-21.03
				c4.04-9.45,5.41-19.34,4.61-29.54c-1.1-14.08-6.16-25.85-19.39-32.78c-0.46-0.24-0.83-0.68-1.55-1.3
				c2.36-2.29,4.87-4.2,6.74-6.61c11.71-15.09,11.86-40.11,0.43-55.44c-5.59-7.49-12.82-11.85-22.48-11.58
				c-5.11,0.14-10.26,0.39-15.33-0.08c-9.28-0.86-17.48,1.32-25.24,6.51c-2.99,2-4.74,3.81-4.93,7.48
				c-0.79,15.16-1.78,30.31-2.69,45.46c-0.94,15.58-2.28,31.14-2.7,46.74C159.74,201.51,160.1,218.96,160.1,236.35z M140.79,154.1
				c0,1.88,0,3.42,0,4.96c0,17.19,0.16,34.37-0.11,51.56c-0.07,4.56,1.04,8.14,4.03,11.52c3.75,4.25,7.13,8.84,11.1,13.82
				c0-44.35,0-87.74,0-131.17c-5.02,0-9.78,0-15.09,0c0,13.08,0,25.91,0,38.93c-12.43,0-24.3,0-36.64,0c0-10.73,0-21.3,0-32.04
				c-8.2,0-15.91,0-23.91,0c-0.66,14.02-1.33,27.76-1.94,41.51c-1.04,23.24-2.08,46.48-3.02,69.73c-0.2,4.91,2.38,8.11,7.31,8.77
				c4.19,0.56,8.52,0.81,12.72,0.43c5.99-0.54,8.01-3.23,8.01-9.37c0-18.04-0.01-36.08-0.02-54.12c0-4.78,0-9.57,0-14.53
				C115.85,154.1,128.01,154.1,140.79,154.1z M79.46,102.41c8.21,0,15.91,0,23.59,0c0.57-8.11,4.33-12.46,11.83-14.01
				c4.83-1,10.68,0.56,12.01,3.19c2.53,5.02,5.74,6.44,11.65,5.18c3.15-0.67,5.58-4.71,5.6-9.42c0.02-4.69-0.23-9.39,0.07-14.06
				c0.28-4.45-2.51-6.25-5.9-6.95c-3.6-0.74-7.04-0.33-9.87,3.1c-4.27,5.18-9.44,5.25-14.12,0.49c-3.39-3.44-7.02-5.06-12-4.75
				c-7.07,0.44-14.21-0.15-21.29,0.21c-4.29,0.22-8.7,0.91-12.76,2.26c-18.09,6.03-29.36,19.96-39.51,35.01
				c-1.37,2.03-2,4.56-2.97,6.85c3-1.06,5.08-2.7,7.18-4.33c7.15-5.57,14.3-11.15,23.12-13.94c6.12-1.94,12.31-3.06,18.72-1.49
				c3.13,0.76,5,2.41,4.68,5.96C79.31,97.81,79.46,99.95,79.46,102.41z"/>
			<path d="M160.1,236.35c0-17.4-0.36-34.84,0.11-52.27c0.42-15.59,1.76-31.16,2.7-46.74c0.91-15.15,1.91-30.3,2.69-45.46
				c0.19-3.67,1.93-5.48,4.93-7.48c7.76-5.19,15.96-7.36,25.24-6.51c5.07,0.47,10.22,0.23,15.33,0.08
				c9.66-0.27,16.9,4.09,22.48,11.58c11.43,15.32,11.27,40.35-0.43,55.44c-1.87,2.41-4.38,4.33-6.74,6.61
				c0.73,0.62,1.09,1.06,1.55,1.3c13.23,6.93,18.28,18.7,19.39,32.78c0.8,10.2-0.57,20.1-4.61,29.54
				c-5.34,12.47-14.1,20.75-28.25,21.03C196.34,236.62,178.18,236.35,160.1,236.35z M176.63,167.65
				c-0.68,13.98-1.37,28.28-2.06,42.44c11.97,0,23.01,0.18,34.05-0.07c6.36-0.15,11.03-3.52,13.43-9.46
				c3.11-7.67,3.07-15.44-0.1-23.12c-2.37-5.74-6.77-9.42-12.86-9.67C198.52,167.32,187.91,167.65,176.63,167.65z M178.02,140.16
				c10.35,0,20.13,0.57,29.78-0.31c3.29-0.3,7.29-3.62,9.14-6.67c4.47-7.36,4.27-15.59,0.19-23.11c-1.45-2.67-4.86-5.64-7.67-5.97
				c-9.63-1.13-19.39-1.16-29.55-1.63C179.25,115.73,178.62,128.1,178.02,140.16z"/>
			<path d="M140.79,154.1c-12.78,0-24.94,0-37.56,0c0,4.96,0,9.74,0,14.53c0.01,18.04,0.02,36.08,0.02,54.12
				c0,6.14-2.02,8.83-8.01,9.37c-4.2,0.38-8.53,0.13-12.72-0.43c-4.93-0.66-7.51-3.85-7.31-8.77c0.94-23.25,1.98-46.49,3.02-69.73
				c0.61-13.75,1.28-27.49,1.94-41.51c8,0,15.71,0,23.91,0c0,10.74,0,21.31,0,32.04c12.35,0,24.21,0,36.64,0
				c0-13.03,0-25.86,0-38.93c5.31,0,10.06,0,15.09,0c0,43.43,0,86.82,0,131.17c-3.97-4.98-7.34-9.57-11.1-13.82
				c-2.99-3.39-4.1-6.96-4.03-11.52c0.26-17.18,0.11-34.37,0.11-51.56C140.79,157.51,140.79,155.97,140.79,154.1z"/>
			<path d="M79.46,102.41c0-2.46-0.15-4.6,0.03-6.7c0.32-3.55-1.56-5.2-4.68-5.96c-6.41-1.57-12.6-0.45-18.72,1.49
				c-8.82,2.8-15.97,8.38-23.12,13.94c-2.1,1.63-4.18,3.28-7.18,4.33c0.97-2.3,1.6-4.82,2.97-6.85
				C38.92,87.61,50.2,73.68,68.28,67.65c4.06-1.35,8.47-2.04,12.76-2.26c7.08-0.36,14.22,0.23,21.29-0.21
				c4.98-0.31,8.62,1.31,12,4.75c4.67,4.75,9.84,4.68,14.12-0.49c2.83-3.43,6.27-3.85,9.87-3.1c3.39,0.7,6.18,2.5,5.9,6.95
				c-0.3,4.67-0.05,9.37-0.07,14.06c-0.02,4.71-2.44,8.75-5.6,9.42c-5.92,1.26-9.12-0.17-11.65-5.18
				c-1.33-2.63-7.18-4.18-12.01-3.19c-7.51,1.55-11.27,5.9-11.83,14.01C95.37,102.41,87.67,102.41,79.46,102.41z"/>
			<path class="st1" d="M176.63,167.65c11.27,0,21.88-0.32,32.46,0.12c6.09,0.26,10.49,3.94,12.86,9.67
				c3.18,7.68,3.21,15.45,0.1,23.12c-2.41,5.94-7.07,9.31-13.43,9.46c-11.04,0.25-22.08,0.07-34.05,0.07
				C175.26,195.93,175.96,181.63,176.63,167.65z"/>
			<path class="st1" d="M178.02,140.16c0.61-12.06,1.23-24.43,1.89-37.69c10.16,0.47,19.92,0.49,29.55,1.63
				c2.81,0.33,6.22,3.3,7.67,5.97c4.08,7.52,4.28,15.75-0.19,23.11c-1.85,3.05-5.85,6.37-9.14,6.67
				C198.15,140.73,188.37,140.16,178.02,140.16z"/>
		</g>
	</g>
	<g>
		<g>
			<path d="M383.77,152.85c1.93,0,1.93-3,0-3C381.84,149.85,381.84,152.85,383.77,152.85L383.77,152.85z"/>
		</g>
	</g>
</g>
</svg>
